# xmcd CD database file
#
# Track frame offsets:
#	150
#	17452
#	31234
#	47705
#	64199
#	84172
#	101527
#	119195
#	138616
#	157179
#	180176
#	202323
#	216261
#	232999
#	251144
#
# Disc length: 3600 seconds
#
# Revision: 0
# Processed by: cddbd v1.5.1PL2 Copyright (c) Steve Scherf et al.
# Submitted via: CDex 1.50Beta6
#
DISCID=d40e0e0f
DTITLE=Jose - In Love With You
DYEAR=2005
DGENRE=Jazz
TTITLE0=Amaani
TTITLE1=Sweet Friend
TTITLE2=Cascara
TTITLE3=Come and make love with me
TTITLE4=One hundred nights without you
TTITLE5=Someone beautiful
TTITLE6=In love with you
TTITLE7=Gino
TTITLE8=Dreaming of your name
TTITLE9=Grazie paolo
TTITLE10=Dindi in the night
TTITLE11=On the street with peter
TTITLE12=Eugenia
TTITLE13=Sweet friend anthem
TTITLE14=Fat nazi in the kitchen
EXTD=YEAR: 2005
EXTT0=
EXTT1=
EXTT2=
EXTT3=
EXTT4=
EXTT5=
EXTT6=
EXTT7=
EXTT8=
EXTT9=
EXTT10=
EXTT11=
EXTT12=
EXTT13=
EXTT14=
PLAYORDER=
